<svg xmlns="http://www.w3.org/2000/svg" width="84.66" height="20"><g transform="translate(-0.001 0.001)"><path d="M 64.673 3.152 C 64.661 3.116 64.655 3.079 64.655 3.041 L 67.576 3.036 L 67.494 3.344 C 67.457 3.692 67.387 4.039 67.385 4.385 C 67.378 8.935 67.385 13.484 67.38 18.034 C 67.378 19.954 67.597 19.872 65.661 19.855 C 65.44 19.855 65.218 19.919 64.999 19.952 C 64.937 19.925 64.875 19.898 64.815 19.87 C 64.824 14.472 64.834 9.074 64.836 3.676 C 64.836 3.502 64.731 3.325 64.675 3.15 Z" fill="rgb(76,68,154)"></path><path d="M 67.578 3.036 C 66.605 3.036 65.63 3.039 64.657 3.041 C 63.492 3.014 62.329 2.987 61.164 2.958 C 61.164 2.441 61.207 1.919 61.15 1.408 C 61.067 0.634 61.366 0.418 62.129 0.428 C 65.166 0.469 68.203 0.445 71.242 0.445 L 71.242 3.037 L 67.578 3.037 Z" fill="rgb(139,187,69)"></path><path d="M 64.999 19.952 C 65.22 19.919 65.442 19.853 65.661 19.855 C 67.599 19.872 67.378 19.954 67.38 18.034 C 67.385 13.484 67.38 8.935 67.385 4.385 C 67.385 4.037 67.455 3.69 67.494 3.344 C 67.519 4.146 67.564 4.946 67.564 5.748 C 67.572 10.156 67.547 14.566 67.587 18.973 C 67.595 19.808 67.401 20.177 66.525 20.049 C 66.022 19.975 65.506 19.981 64.997 19.952 Z M 64.673 3.152 C 64.729 3.327 64.834 3.503 64.834 3.678 C 64.834 9.076 64.822 14.474 64.813 19.872 C 64.762 19.63 64.665 19.387 64.665 19.144 C 64.661 13.814 64.667 8.484 64.673 3.152 Z" fill="rgb(76,68,154)"></path><path d="M 71.242 0.443 C 68.205 0.443 65.166 0.467 62.129 0.426 C 61.366 0.416 61.067 0.634 61.15 1.406 C 61.205 1.917 61.162 2.439 61.164 2.956 C 60.683 2.463 60.605 1.07 61.009 0.226 C 64.417 0.23 67.824 0.232 71.232 0.236 C 71.236 0.303 71.238 0.373 71.242 0.441 Z" fill="rgb(139,187,69)"></path><path d="M 71.232 0.237 C 67.824 0.234 64.417 0.232 61.009 0.228 C 64.417 0.232 67.824 0.234 71.232 0.237 Z" fill="rgb(139,187,69)"></path><path d="M 11.873 12.371 C 11.791 13.824 11.193 15.026 10.15 16.037 C 8.787 17.362 7.451 18.713 6.102 20.049 C 6.059 20.09 5.987 20.1 6.141 19.909 C 4.436 18.348 2.669 16.847 1.059 15.191 C 0.525 14.641 0.397 13.694 0.084 12.929 C 0.152 12.634 0.22 12.336 0.302 11.983 L 2.684 11.983 L 2.737 11.964 C 2.776 12.177 2.813 12.393 2.851 12.606 C 3.807 13.863 4.764 15.119 5.783 16.461 C 6.84 15.391 7.78 14.585 8.521 13.628 C 8.896 13.144 9.065 12.387 9.075 11.748 C 9.125 8.234 9.092 4.719 9.106 1.204 C 9.106 0.919 9.24 0.634 9.31 0.35 L 9.31 11.96 L 11.807 11.96 C 11.828 12.096 11.848 12.234 11.869 12.37 Z" fill="rgb(147,95,166)"></path><path d="M 2.686 11.985 L 0.304 11.985 C 0.222 12.338 0.154 12.636 0.086 12.931 C 0.057 12.29 0.007 11.651 0.005 11.01 C -0.003 7.498 0.001 3.985 0.001 0.389 L 2.684 0.389 L 2.684 11.985 Z" fill="rgb(167,142,173)"></path><path d="M 11.805 11.962 L 9.108 11.962 L 9.108 0.352 C 9.818 0.344 10.533 0.307 11.24 0.348 C 11.465 0.362 11.677 0.581 11.896 0.707 C 11.873 1.09 11.832 1.472 11.83 1.855 C 11.817 5.224 11.813 8.593 11.805 11.962 Z" fill="rgb(112,44,130)"></path><path d="M 2.853 12.608 C 2.815 12.395 2.778 12.179 2.739 11.966 C 2.778 12.179 2.815 12.395 2.853 12.608 Z" fill="rgb(232,226,222)"></path><path d="M 47.976 18.208 C 46.731 19.344 45.302 20.21 43.589 20.055 C 40.896 19.812 38.702 17.903 38.403 15.024 C 38.395 14.315 38.389 13.608 38.382 12.9 C 38.405 12.762 38.43 12.622 38.453 12.484 C 39.343 12.49 40.234 12.498 41.123 12.503 C 41.147 12.634 41.168 12.766 41.191 12.896 C 41.232 13.676 41.275 14.459 41.316 15.239 C 41.817 16.597 43.038 17.542 44.04 17.35 C 45.576 17.055 46.549 15.882 46.554 14.325 C 46.556 13.713 46.574 13.102 46.585 12.49 C 47.481 12.484 48.376 12.48 49.271 12.474 C 49.294 12.616 49.316 12.756 49.339 12.898 C 49.329 13.672 49.317 14.447 49.308 15.222 C 48.863 16.218 48.418 17.212 47.974 18.208 Z" fill="rgb(234,31,57)"></path><path d="M 47.976 18.208 C 48.42 17.212 48.865 16.218 49.31 15.222 C 49.362 15.226 49.413 15.234 49.463 15.247 C 50.063 16.719 51.154 17.408 52.517 17.177 C 53.797 16.96 54.704 15.771 54.725 14.28 L 54.754 12.148 C 54.803 12.14 54.851 12.133 54.9 12.123 C 55.743 12.125 56.585 12.129 57.428 12.131 C 57.442 12.935 57.434 13.74 57.471 14.542 C 57.605 17.461 55.071 20.119 51.774 20.053 C 50.294 20.024 49.007 19.309 47.978 18.208 Z" fill="rgb(156,161,118)"></path><path d="M 41.197 0.682 C 41.176 4.494 41.156 8.303 41.135 12.115 C 40.24 12.115 39.343 12.111 38.448 12.109 C 38.424 11.985 38.403 11.859 38.38 11.735 L 38.38 0.09 C 39.253 0.09 40.017 0.07 40.776 0.107 C 40.921 0.115 41.057 0.344 41.197 0.472 Z" fill="rgb(18,91,49)"></path><path d="M 57.426 12.133 C 56.583 12.131 55.741 12.127 54.9 12.125 L 54.749 11.927 L 54.749 0.148 L 57.426 0.148 Z" fill="rgb(166,139,172)"></path><path d="M 49.275 12.476 C 48.38 12.482 47.484 12.488 46.589 12.492 L 46.589 12.121 C 46.644 11.783 46.741 11.443 46.743 11.105 C 46.76 7.441 46.762 3.777 46.768 0.113 C 47.428 0.103 48.088 0.065 48.747 0.105 C 48.952 0.119 49.147 0.346 49.345 0.476 C 49.345 0.542 49.341 0.608 49.341 0.676 L 49.341 11.931 L 49.271 12.476 Z" fill="rgb(143,94,40)"></path><path d="M 46.768 0.115 C 46.762 3.779 46.76 7.443 46.743 11.107 C 46.743 11.445 46.642 11.785 46.589 12.123 C 46.578 8.276 46.564 4.43 46.564 0.583 C 46.564 0.428 46.698 0.272 46.768 0.115 Z" fill="rgb(143,94,40)"></path><path d="M 38.448 12.109 C 39.343 12.109 40.24 12.113 41.135 12.115 C 41.131 12.245 41.129 12.375 41.125 12.505 C 40.236 12.5 39.345 12.494 38.455 12.486 C 38.453 12.36 38.45 12.236 38.448 12.109 Z" fill="rgb(18,91,49)"></path><path d="M 49.463 15.247 C 49.413 15.236 49.362 15.228 49.31 15.222 C 49.319 14.447 49.331 13.672 49.341 12.898 L 49.463 15.245 Z" fill="rgb(156,161,118)"></path><path d="M 41.317 15.241 C 41.277 14.461 41.234 13.678 41.193 12.898 C 41.234 13.678 41.277 14.461 41.317 15.241 Z" fill="rgb(204,197,206)"></path><path d="M 38.383 12.902 C 38.391 13.61 38.397 14.317 38.405 15.026 C 38.397 14.317 38.391 13.61 38.383 12.902 Z" fill="rgb(232,226,222)"></path><path d="M 54.749 11.927 L 54.9 12.125 C 54.851 12.133 54.803 12.142 54.754 12.15 Z" fill="rgb(166,139,172)"></path><path d="M 84.661 14.236 C 84.655 14.56 84.651 14.882 84.646 15.206 L 84.622 15.404 C 84.011 18.321 81.912 20.088 79.067 20.076 C 76.368 20.065 73.848 17.715 73.78 15.018 C 73.71 12.305 73.766 9.589 73.766 6.874 C 73.826 6.878 73.884 6.888 73.945 6.902 C 73.943 8.125 73.939 9.348 73.937 10.571 C 73.937 12.247 74.774 13.08 76.448 13.07 L 76.517 14.234 C 76.521 16.026 77.655 17.315 79.238 17.327 C 80.754 17.338 81.904 16.043 81.916 14.313 C 81.917 13.898 81.925 13.48 81.929 13.065 L 82.013 13.069 L 82.096 13.067 L 84.599 13.072 C 84.618 13.463 84.64 13.851 84.659 14.241 Z" fill="rgb(167,142,173)"></path><path d="M 73.945 6.9 C 73.886 6.886 73.826 6.876 73.766 6.872 C 73.504 4.527 73.995 2.488 76.007 0.991 C 78.692 -1.009 83.89 -0.015 84.438 4.278 C 84.539 5.07 84.572 5.87 84.638 6.667 C 84.613 6.721 84.593 6.777 84.576 6.836 C 83.75 6.859 82.923 6.884 82.098 6.907 C 82.042 6.886 81.985 6.874 81.925 6.876 C 81.91 6.331 81.898 5.785 81.875 5.239 C 81.828 4.135 81.321 3.284 80.269 2.954 C 79.257 2.636 78.222 2.616 77.356 3.461 C 76.424 4.368 76.356 5.484 76.488 6.667 C 76.465 6.719 76.45 6.773 76.438 6.83 C 75.607 6.853 74.776 6.876 73.945 6.902 Z" fill="rgb(139,187,69)"></path><path d="M 84.576 6.834 C 84.585 8.911 84.593 10.989 84.603 13.067 L 82.1 13.061 L 82.1 6.905 C 82.925 6.882 83.752 6.857 84.578 6.834 Z" fill="rgb(112,44,130)"></path><path d="M 73.752 6.9 L 76.428 6.83 L 76.44 13.069 C 74.644 13.079 73.747 12.246 73.747 10.57 C 73.747 9.346 73.75 8.123 73.754 6.9 Z" fill="rgb(147,95,166)"></path><path d="M 82.098 6.905 L 82.098 13.061 L 82.015 13.063 L 81.931 13.059 L 81.925 6.872 C 81.985 6.872 82.044 6.88 82.098 6.903 Z" fill="rgb(112,44,130)"></path><path d="M 19.642 9.171 C 19.642 9.303 19.644 9.434 19.646 9.566 L 19.646 9.954 L 19.564 9.948 L 16.931 9.966 L 16.931 0.243 C 17.731 0.243 18.523 0.228 19.314 0.261 C 19.428 0.267 19.535 0.509 19.644 0.641 C 19.644 3.484 19.644 6.327 19.642 9.17 Z" fill="rgb(139,187,69)"></path><path d="M 19.642 19.272 C 19.65 20.193 18.832 19.836 18.403 20.004 C 18.02 20.154 17.527 20.018 17.081 20.006 C 17.073 17.556 17.063 15.105 17.061 12.655 C 17.059 10.976 17.895 10.14 19.572 10.146 L 19.642 10.715 L 19.642 19.27 Z" fill="rgb(134,19,48)"></path><path d="M 19.57 10.146 C 17.896 10.14 17.059 10.976 17.059 12.655 C 17.063 15.105 17.073 17.556 17.079 20.006 C 17.013 19.917 16.886 19.83 16.886 19.74 C 16.894 16.482 16.912 13.222 16.929 9.964 L 19.562 9.946 L 19.568 10.146 Z" fill="rgb(134,19,48)"></path><path d="M 19.64 17.527 L 19.64 11.692 Z M 19.642 19.272 L 19.642 18.482 Z" fill="rgb(204,197,206)"></path><path d="M 19.646 9.954 L 19.646 9.566 Z" fill="rgb(232,226,222)"></path><path d="M 19.64 10.931 L 19.64 10.715 Z" fill="rgb(204,197,206)"></path><path d="M 26.968 19.888 C 26.983 19.003 26.999 18.117 27.017 17.232 C 27.067 17.22 27.117 17.216 27.17 17.216 C 27.236 17.232 27.3 17.245 27.366 17.259 L 33.964 17.259 L 34.731 17.41 L 34.731 20.063 L 27.547 20.063 C 27.362 20.065 27.178 20.067 26.993 20.07 C 26.987 20.008 26.98 19.946 26.968 19.884 Z" fill="rgb(140,152,193)"></path><path d="M 27.065 2.87 C 27.032 1.956 26.999 1.041 26.964 0.127 C 29.552 0.129 32.141 0.133 34.729 0.135 C 34.735 0.886 34.772 1.639 34.729 2.389 C 34.717 2.601 34.479 2.797 34.345 2.999 C 34.286 2.999 34.23 2.995 34.172 2.993 L 28.904 2.993 C 28.29 2.952 27.677 2.909 27.063 2.869 Z" fill="rgb(175,159,130)"></path><path d="M 27.032 11.201 C 27.028 10.29 27.026 9.379 27.022 8.47 C 27.084 8.47 27.147 8.465 27.207 8.451 C 28.949 8.457 30.688 8.453 32.43 8.478 C 32.764 8.482 33.094 8.597 33.426 8.661 L 33.415 10.999 C 33.116 11.063 32.817 11.175 32.517 11.181 C 30.747 11.206 28.974 11.206 27.203 11.214 C 27.147 11.203 27.088 11.199 27.03 11.201 Z" fill="rgb(147,95,166)"></path><path d="M 33.428 8.659 C 33.096 8.595 32.764 8.48 32.432 8.476 C 30.69 8.453 28.95 8.455 27.209 8.449 C 27.195 8.391 27.197 8.335 27.217 8.278 C 29.09 8.278 30.966 8.267 32.84 8.296 C 33.038 8.3 33.232 8.533 33.428 8.659 Z M 27.205 11.212 C 28.976 11.204 30.749 11.204 32.519 11.179 C 32.818 11.175 33.117 11.061 33.417 10.997 C 33.228 11.125 33.042 11.362 32.853 11.366 C 30.972 11.397 29.088 11.391 27.207 11.395 C 27.187 11.335 27.187 11.274 27.207 11.214 Z" fill="rgb(147,95,166)"></path><path d="M 33.587 17.261 L 27.364 17.261 Z" fill="rgb(204,197,206)"></path><path d="M 29.333 2.995 L 32.783 2.995 Z" fill="rgb(185,145,145)"></path><path d="M 27.065 2.88 C 27.679 2.919 28.292 2.958 28.906 2.995 C 28.31 2.987 27.716 2.977 27.119 2.97 C 27.079 2.954 27.059 2.923 27.065 2.88 Z" fill="rgb(175,159,130)"></path><path d="M 24.436 19.977 C 24.968 19.997 25.498 20.014 26.03 20.034 C 25.498 20.014 24.968 19.997 24.436 19.977 Z" fill="rgb(156,161,118)"></path><path d="M 34.731 17.414 L 33.964 17.263 Z" fill="rgb(204,197,206)"></path><path d="M 26.968 19.888 C 26.98 19.95 26.987 20.012 26.993 20.074 L 26.389 20.034 L 26.97 19.888 Z" fill="rgb(156,161,118)"></path><path d="M 34.174 2.995 C 34.232 2.995 34.288 2.999 34.347 3.001 L 34.259 3.02 L 34.174 2.997 Z" fill="rgb(185,145,145)"></path><path d="M 27.547 20.067 L 27.783 20.067 Z" fill="rgb(204,197,206)"></path><path d="M 27.119 2.97 C 27.108 3.051 27.098 3.131 27.086 3.212 C 27.065 4.964 27.044 6.717 27.024 8.469 C 27.028 9.379 27.03 10.29 27.034 11.199 C 27.028 13.21 27.024 15.22 27.018 17.232 C 27.003 18.117 26.987 19.003 26.97 19.886 L 26.389 20.032 L 26.032 20.032 C 25.5 20.012 24.97 19.995 24.438 19.975 L 24.411 19.952 C 24.424 19.406 24.45 18.859 24.451 18.313 C 24.465 12.327 24.475 6.338 24.484 0.352 C 24.543 0.094 26.201 0.129 27.028 0.129 C 27.061 0.971 27.032 2.037 27.065 2.88 C 27.059 2.925 27.077 2.954 27.119 2.97 Z" fill="rgb(93,87,36)"></path></g></svg>