<?xml version="1.0" encoding="UTF-8" standalone="no"?>
<svg
   viewBox="0 0 24 24"
   version="1.1"
   id="svg4"
   sodipodi:docname="chart-scatter-plot.svg"
   inkscape:version="1.1 (c68e22c387, 2021-05-23)"
   xmlns:inkscape="http://www.inkscape.org/namespaces/inkscape"
   xmlns:sodipodi="http://sodipodi.sourceforge.net/DTD/sodipodi-0.dtd"
   xmlns="http://www.w3.org/2000/svg"
   xmlns:svg="http://www.w3.org/2000/svg">
  <defs
     id="defs8" />
  <sodipodi:namedview
     id="namedview6"
     pagecolor="#505050"
     bordercolor="#eeeeee"
     borderopacity="1"
     inkscape:pageshadow="0"
     inkscape:pageopacity="0"
     inkscape:pagecheckerboard="0"
     showgrid="false"
     inkscape:zoom="31.375"
     inkscape:cx="12"
     inkscape:cy="12"
     inkscape:window-width="1920"
     inkscape:window-height="1177"
     inkscape:window-x="1912"
     inkscape:window-y="-8"
     inkscape:window-maximized="1"
     inkscape:current-layer="svg4" />
  <path
     d="M2,2H4V20H22V22H2V2M9,10A3,3 0 0,1 12,13A3,3 0 0,1 9,16A3,3 0 0,1 6,13A3,3 0 0,1 9,10M13,2A3,3 0 0,1 16,5A3,3 0 0,1 13,8A3,3 0 0,1 10,5A3,3 0 0,1 13,2M18,12A3,3 0 0,1 21,15A3,3 0 0,1 18,18A3,3 0 0,1 15,15A3,3 0 0,1 18,12Z"
     id="path2"
     style="fill:#ffffff" />
</svg>
